:SAMPLES-PER-SECOND 30
:FULLY-SPECIFIED
:DEGREES
276
root  68.5827 40.1076 -5.34039 -25.6329 -82.1187 23.5363
RightUpLeg  -3.93157 -15.6684 -12.9097
RightLeg  12.0265 -4.14944 2.3342
RightFoot  -0.994138 -0.295914 3.19109
RightToes  -1.16417e-010 0 -3.6325e-017
Spine  15.3128 -1.07755 6.95436
Spine1  2.9639 0.356411 -2.86182
HEad  -10.2753 -1.30433 -3.51809
LeftShoulder1  9.62301 -18.5436 -37.4437
LeftArm  -31.9425 -59.4824 -29.6252
LeftForeArm  66.4226 -56.6667 -11.1153
LeftHand  -0.244104 0.0205437 5.32207
RightShoulder  5.00275 11.5976 27.0941
RightArm  -10.3196 61.2625 44.3451
RightForeArm  33.0436 29.6445 4.68739
RightHand  0.758941 -11.0359 -13.3152
LeftUpLeg  -3.88042 8.11356 4.10271
LeftLeg  7.01873 8.0365 -2.73406
LeftFoot  1.67612 0.280375 -2.54673
LeftToes  -2.09216e-011 1.96776e-011 -5.83545e-012
277
root  68.702 40.1247 -5.18554 -25.0003 -81.6622 23.5709
RightUpLeg  -4.62403 -15.7944 -13.198
RightLeg  11.7736 -4.52346 2.29592
RightFoot  -0.441717 -0.326867 3.39231
RightToes  -1.16417e-010 0 -3.6325e-017
Spine  15.4189 -1.29577 7.90868
Spine1  2.77959 0.728321 -5.23115
HEad  -11.9511 -2.03146 -2.30815
LeftShoulder1  8.52319 -17.9435 -33.669
LeftArm  -35.7743 -64.5842 -36.9504
LeftForeArm  47.0517 -49.2581 -9.42418
LeftHand  -0.244104 0.0205437 5.32207
RightShoulder  4.48413 11.8395 22.983
RightArm  -14.0235 68.7019 43.1946
RightForeArm  32.0392 11.2809 3.18526
RightHand  0.382788 -19.7496 -2.94262
LeftUpLeg  -4.7265 7.46141 3.51116
LeftLeg  6.74839 8.3581 -2.8507
LeftFoot  2.10766 0.256954 -2.28784
LeftToes  -2.09216e-011 1.96776e-011 -5.83545e-012
278
root  68.7315 40.1537 -5.02889 -23.0071 -80.6395 21.9796
RightUpLeg  -4.45313 -15.7082 -13.7728
RightLeg  11.1411 -5.59966 2.42261
RightFoot  -0.0129762 -0.365828 3.68537
RightToes  -1.16417e-010 0 -3.6325e-017
Spine  15.2314 -1.27602 7.99274
Spine1  2.6391 0.962312 -6.31409
HEad  -12.8299 -3.02213 -1.06628
LeftShoulder1  8.15447 -17.5141 -32.7318
LeftArm  -33.1638 -66.6479 -41.6923
LeftForeArm  39.1166 -45.9578 -8.8078
LeftHand  -0.244104 0.0205437 5.32207
RightShoulder  3.93154 11.6823 19.4521
RightArm  -16.3655 69.6876 39.9549
RightForeArm  27.893 4.3355 3.9602
RightHand  0.353157 -15.5967 -5.10581
LeftUpLeg  -5.12357 6.68363 2.9606
LeftLeg  6.26705 8.16769 -3.03713
LeftFoot  2.52444 0.230754 -2.02412
LeftToes  -2.09216e-011 1.96776e-011 -5.83545e-012
279
root  68.6991 40.1803 -4.86621 -20.0224 -79.0784 19.0219
RightUpLeg  -3.41991 -15.4117 -14.4813
RightLeg  10.2415 -7.36083 2.61669
RightFoot  0.250181 -0.411129 4.06474
RightToes  -1.16417e-010 0 -3.6325e-017
Spine  14.997 -1.30754 7.62826
Spine1  2.3817 0.943967 -6.71307
HEad  -12.1703 -4.12049 0.461927
LeftShoulder1  8.16802 -17.3731 -33.0557
LeftArm  -26.3726 -66.545 -43.6288
LeftForeArm  47.4615 -43.9193 -7.61145
LeftHand  -0.244104 0.0205437 5.32207
RightShoulder  4.01958 11.9533 19.549
RightArm  -12.3649 65.4879 36.8014
RightForeArm  23.09 9.30038 5.26005
RightHand  0.373469 -9.89805 -10.2636
LeftUpLeg  -5.04604 5.82813 2.47681
LeftLeg  5.67997 7.51312 -3.19761
LeftFoot  2.78806 0.180653 -1.59432
LeftToes  -2.09216e-011 1.96776e-011 -5.83545e-012
280
root  68.6256 40.1971 -4.69341 -17.1946 -77.2422 16.0346
RightUpLeg  -2.02879 -15.1223 -15.1324
RightLeg  9.36044 -9.30861 2.74329
RightFoot  0.376755 -0.461794 4.52206
RightToes  -1.16417e-010 0 -3.6325e-017
Spine  14.0264 -1.28737 6.77547
Spine1  3.33408 0.755949 -6.15964
HEad  -11.1811 -5.22774 1.51857
LeftShoulder1  8.33456 -17.2984 -33.9914
LeftArm  -20.4958 -65.0022 -43.1786
LeftForeArm  57.854 -42.0716 -6.47673
LeftHand  -0.244104 0.0205437 5.32207
RightShoulder  4.74771 12.6768 23.1101
RightArm  -4.53766 59.207 32.6187
RightForeArm  15.2009 21.2015 4.99744
RightHand  0.254065 -7.5991 -14.3735
LeftUpLeg  -4.77372 5.02145 2.02048
LeftLeg  5.19739 6.5725 -3.26273
LeftFoot  2.8589 0.114497 -1.0581
LeftToes  -2.09216e-011 1.96776e-011 -5.83545e-012
